<svg id="Layer_1" data-name="Layer 1" xmlns="http://www.w3.org/2000/svg" viewBox="0 0 275 343"><defs><style>.cls-1{opacity:0.3;}.cls-2{fill-rule:evenodd;}</style></defs><title>butlerLogo</title><g id="Page-1" class="cls-1"><g id="Splash"><g id="iconfinder_Room_Service_1200381" data-name="iconfinder Room Service 1200381"><path id="Shape" class="cls-2" d="M103.48,174.16c-9.94,5.8-24.2,8.38-35.6,7.63L62,181.41c11,19.14,28.23,53.5,45.36,70.94,10.17,10.36,28.27,5.64,35.16-6.56,7.54-13.34,10.44-20.71,17.23-34.36,1.24,21.36.62,110.22.76,131.57L275,304.57V128.07c-6.8-2.31-13.3-3.84-21-6.07,1.42,32.85-21.59,61.15-33.64,81.1-12.06-19.95-35.07-48.25-33.64-81.1-11.08,3.23-19.71,5-30.36,9.75-5.61,2.52-10.56,6.35-12.58,11.83-6.93,18.74-13,34.55-20.57,56.23-1.13,3.22-2.31,3.55-3.54,1.53C114.36,192.57,110.42,186.24,103.48,174.16ZM94.27,189A4.76,4.76,0,1,0,99,193.75,4.75,4.75,0,0,0,94.27,189Z" transform="translate(0 0)"/><path class="cls-2" d="M229,.85A40.67,40.67,0,0,0,214.42.48a41.65,41.65,0,0,0-21.08,9.84h0c-6.74,6-13.35,8.62-15.87,20.24-1.76,8.13-.07,18.15,1.8,26.22-2.32-.6-4.64-.47-5.34,2.06a14.8,14.8,0,0,0,.29,9.15c.92,2.61,4.7,5,6.7,7.23a5.36,5.36,0,0,0,4,1.29c18.25,46.18,53.32,46.19,71.56,0a5.36,5.36,0,0,0,4-1.29c2-2.24,5.78-4.62,6.7-7.23a14.8,14.8,0,0,0,.29-9.15c-.7-2.53-3-2.66-5.34-2.06l0-.15c1.86-8,3.51-18,1.76-26.07-2.42-11.21-8.66-14-15.14-19.62A41.91,41.91,0,0,0,229,.85ZM96.87,157.28c0,3.87.06,6.07-2.1,8.58-8.26,4.75-20.49,6.6-29.14,6a25.6,25.6,0,0,0-5.71-9.8c-4.77-5-9.64-9.81-14.63-15.22a63,63,0,0,1-9.13-13.14h-20a9.12,9.12,0,0,1-7.78-4.4h-6A2.42,2.42,0,0,1,0,126.93H0a9.72,9.72,0,0,1,8.42-9.59,64.85,64.85,0,0,1,19.87-35,63.34,63.34,0,0,1,84.57-.85,64.76,64.76,0,0,1,20.84,36,9.71,9.71,0,0,1,8.11,9.54h0a2.42,2.42,0,0,1-2.42,2.41h-6a9.12,9.12,0,0,1-7.78,4.4H104.78c-7.22,8.08-8,13.7-7.91,23.54Zm19.64-40c-2.47-14-8.36-26-16.31-34.36a55.7,55.7,0,0,1,24.47,34.36ZM51,78.29c-10.52,8.24-18.4,22.21-21.37,39H17.43A56,56,0,0,1,34.21,88.78,55,55,0,0,1,51,78.29Zm16.15,55.45c2.49,2.12,4.88,4.26,7.17,6.32,5.08,4.57,10.83-.07,13.47-2.93a28.63,28.63,0,0,1,3.79-3.39Zm3.75-87.89a7.69,7.69,0,1,0,7.7,7.69,7.7,7.7,0,0,0-7.7-7.69Zm165.34,79.21-15.58,8.13-15.58-8.13c-1.46-.76-3.05.48-3.05,2.25v19.82c0,1.78,1.6,3,3.06,2.25l15.57-8.13,15.58,8.13c1.46.77,3.06-.47,3.06-2.25V127.31c0-1.77-1.6-3-3.06-2.25Z" transform="translate(0 0)"/></g></g></g></svg>