<svg xmlns="http://www.w3.org/2000/svg" viewBox="0 0 1013.65 440.29"><defs><style>.cls-1{fill:#4d4d4d;}.cls-2{fill:#999;}</style></defs><title>wWLogoAsset 1</title><g id="Layer_2" data-name="Layer 2"><g id="Layer_1-2" data-name="Layer 1"><polygon class="cls-1" points="257.91 438.01 150.94 440.29 0 3.26 103.07 2.97 257.91 438.01"/><polygon class="cls-1" points="167.68 411.42 256.01 438.58 395.25 29.27 306.92 2.11 167.68 411.42"/><polygon class="cls-1" points="472.15 410.55 560.48 437.7 699.72 28.39 611.39 1.23 472.15 410.55"/><polygon class="cls-2" points="867.1 435.56 748.99 436.56 611.6 1 705.46 0.73 867.1 435.56"/><polygon class="cls-2" points="777 409.42 865.34 436.57 1013.65 0 910.58 0.3 777 409.42"/><polygon class="cls-2" points="561.59 436.82 443.48 437.82 306.09 2.26 399.95 1.99 561.59 436.82"/></g></g></svg>